<svg xmlns="http://www.w3.org/2000/svg" data-name="Layer 1" viewBox="0 0 100 100" x="0px" y="0px" fill="grey"><title>setng cog</title><path d="M86.3,37.56l-1.7-4c5.84-13.19,5.45-13.58,4.32-14.71l-7.46-7.29-0.74-.63H79.86c-0.45,0-1.82,0-13.15,5.14l-4.16-1.68C57.16,1,56.61,1,55,1H44.52c-1.58,0-2.19,0-7.19,13.4l-4.16,1.68C25.51,12.84,21,11.2,19.81,11.2l-1,0-8,7.85c-1.21,1.15-1.64,1.54,4.53,14.53l-1.7,4C0,42.93,0,43.44,0,45.06V55.37C0,57,0,57.56,13.69,62.46l1.7,4C9.55,79.67,10,80.06,11.1,81.2l7.46,7.29,0.74,0.64h0.86c0.45,0,1.8,0,13.13-5.16l4.16,1.7C42.84,99,43.39,99,45,99H55.48c1.6,0,2.17,0,7.19-13.4l4.18-1.68c7.64,3.24,12.13,4.88,13.32,4.88l1,0,8.07-7.91c1.15-1.15,1.56-1.56-4.59-14.49l1.68-4C100,57.09,100,56.52,100,55V44.67C100,43,100,42.44,86.3,37.56ZM65,51.48c0,0.47,0,.64-4.1,2.23L60.4,54.92c1.84,3.89,1.72,4,1.37,4.36l-2.42,2.36H59.05a20.6,20.6,0,0,1-4-1.47l-1.25.51c-1.5,4-1.68,4-2.15,4H48.49c-0.47,0-.64,0-2.27-4L45,60.2c-3.4,1.54-3.81,1.54-3.95,1.54H40.77l-0.21-.2-2.25-2.19C38,59,37.84,58.89,39.6,54.94l-0.51-1.21C35,52.27,35,52.09,35,51.6V48.52c0-.49,0-0.64,4.1-2.23l0.51-1.21c-1.86-3.89-1.72-4-1.37-4.36l2.4-2.36h0.29a20.13,20.13,0,0,1,4,1.47l1.25-.51c1.5-4,1.68-4,2.15-4h3.15c0.47,0,.64,0,2.27,4L55,39.8c3.4-1.54,3.81-1.54,3.95-1.54h0.25l0.21,0.2,2.25,2.19c0.33,0.35.45,0.47-1.29,4.41l0.51,1.21C65,47.73,65,47.91,65,48.4v3.09h0Z"/></svg>