<svg xmlns="http://www.w3.org/2000/svg" xmlns:xlink="http://www.w3.org/1999/xlink" xml:space="preserve" version="1.1" style="shape-rendering:geometricPrecision;text-rendering:geometricPrecision;image-rendering:optimizeQuality;" viewBox="0 0 464 405" x="0px" y="0px" fill-rule="evenodd" clip-rule="evenodd"><defs><style type="text/css">
   
    .fil0 {fill:#8EE3EF;fill-rule:nonzero}
   
  </style></defs><g><path class="fil0" d="M29 170l203 -129 203 129c9,5 20,3 26,-6 5,-8 3,-20 -6,-26 -71,-45 -142,-90 -213,-135 -6,-4 -14,-4 -20,0l-213 135c-9,6 -12,18 -6,26 5,9 17,11 26,6z"/><path class="fil0" d="M370 61l31 19 0 -43c0,-8 -7,-15 -15,-15 -9,0 -16,7 -16,15l0 24z"/><path class="fil0" d="M174 386l0 -147c0,-6 4,-10 10,-10l96 0c6,0 10,4 10,10l0 147 82 0c10,0 18,-8 18,-18l0 -203 -158 -100 -158 100 0 203c0,10 8,18 17,18l83 0z"/></g></svg>